<svg xmlns="http://www.w3.org/2000/svg" width="24" height="24" viewBox="0 0 24 24">
    <path d="M20.5 8.23c0 1.93-.45 3.8-1.36 5.59a11.62 11.62 0 0 1-3.97 4.56c-1.86 1.26-4 1.9-6.42 1.9-2.31 0-4.43-.64-6.35-1.9.3.03.62.03.98.03 1.92 0 3.64-.6 5.18-1.8-.92 0-1.73-.26-2.41-.83a4.3 4.3 0 0 1-1.44-2.06c.26.03.52.03.75.03.36 0 .75-.03 1.1-.13a4.1 4.1 0 0 1-2.37-1.5 4.03 4.03 0 0 1-.94-2.66v-.07c.58.34 1.2.54 1.85.57a4.3 4.3 0 0 1-1.33-1.53 4.43 4.43 0 0 1-.59-2.03c0-.73.2-1.43.59-2.13A10.87 10.87 0 0 0 7.55 7.4c1.5.76 3.06 1.2 4.75 1.3-.06-.34-.06-.64-.06-.97a4.4 4.4 0 0 1 2.05-3.7c.62-.4 1.3-.56 2.05-.56.62 0 1.17.13 1.66.37.49.23.98.56 1.37.96.94-.2 1.82-.53 2.64-1-.33 1-.92 1.77-1.83 2.33.78-.1 1.56-.33 2.38-.7a9.6 9.6 0 0 1-2.09 2.23c0 .17.04.34.04.57Z"
          fill="#2AA4F1"></path>
</svg>